PSF_ID_stride6.mot
nRows=5
nColumns=38

name PSF_ID_stride6.mot
datacolumns 38
datarows 5
range 3.2900000000 3.3100000000
endheader
time	pelvis_tilt_moment	pelvis_list_moment	pelvis_rotation_moment	pelvis_tx_force	pelvis_ty_force	pelvis_tz_force	hip_flexion_r_moment	hip_adduction_r_moment	hip_rotation_r_moment	knee_angle_r_moment	ankle_angle_r_moment	subtalar_angle_r_moment	mtp_angle_r_moment	hip_flexion_l_moment	hip_adduction_l_moment	hip_rotation_l_moment	knee_angle_l_moment	ankle_angle_l_moment	subtalar_angle_l_moment	mtp_angle_l_moment	lumbar_extension_moment	lumbar_bending_moment	lumbar_rotation_moment	arm_flex_r_moment	arm_add_r_moment	arm_rot_r_moment	elbow_flex_r_moment	pro_sup_r_moment	wrist_flex_r_moment	wrist_dev_r_moment	arm_flex_l_moment	arm_add_l_moment	arm_rot_l_moment	elbow_flex_l_moment	pro_sup_l_moment	wrist_flex_l_moment	wrist_dev_l_moment
        3.2900000000	      -24.6911069279	       -1.0059653289	        2.6336039814	      -24.9875856819	      204.9006463417	      115.4242347857	       77.5267730641	        3.4357640986	        0.4411993195	       24.4188349505	        4.6541658494	       -0.6542889764	        0.2118434631	      -61.8070333633	       -1.6613833530	       -0.0389533204	      -37.3858165243	        9.9737642411	       -4.0955859753	        0.0567915420	       -6.3036299103	       11.2273332840	       -5.9289667443	       -5.6277433616	       -0.2461055630	        0.1651796791	       -1.2115957630	        0.0147105500	       -0.0217460979	        0.1431648201	       -4.4484830934	        0.3647112275	        1.0205260459	       -0.8879496040	        0.0502348130	        0.0943132212	        0.1478810916	
        3.2950000000	      -34.4371329620	       40.5948214397	       10.7649813147	       -5.7161956356	      302.1240980367	       80.5758065490	       76.6407501465	        4.5447135253	       -0.5216733838	       24.4360545898	        4.6409301675	       -0.5451577677	        0.2146348329	      -28.6583635115	      -15.8646832595	       -0.1729946510	      -13.3612020092	       17.7776292532	       -5.6997120208	        0.1492935030	        4.1594558458	       13.0662709118	       -0.6136679749	       -5.6979298303	        0.1927272661	        0.7166231639	       -0.5140290020	        0.0195965762	        0.0556290684	        0.1063929022	       -5.7616699417	        0.2350669241	        0.7881757469	       -0.3544343881	        0.0273336639	        0.0741256095	        0.0991732652	
        3.3000000000	      -48.5683480019	       64.6445760699	       22.3393039963	       20.3474912711	      354.8428156922	       37.0209858979	       77.2622014558	        6.2212539040	       -1.3439177112	       23.7203803573	        4.6396883803	       -0.4543336239	        0.2194203494	      -19.5632040104	      -32.6180676508	       -1.0151253773	        0.7299011282	       21.2399806181	       -4.9379184469	        0.2416928488	       17.0369301993	       19.9482141832	        4.4636658295	       -5.2844678991	        0.4078330313	        1.0934209006	        0.4721823767	        0.0147032636	        0.1234585338	        0.0345638168	       -6.6204943453	        0.4898541922	        0.6744057270	        0.4840285571	        0.0026873279	        0.0680590824	        0.0213430567	
        3.3050000000	      -55.8223849825	       65.4561795896	       36.6466012947	       45.6380053713	      319.8044742345	      -17.3392899080	       79.4578561128	        8.2646627764	       -1.8600221993	       23.0600514323	        4.6437666259	       -0.3954147347	        0.2243736291	      -31.4572805172	      -46.5800166333	       -6.2373139722	        8.4658526395	       18.2215424495	       -4.3397662506	        0.3183627138	       26.7358985681	       27.2387413849	        8.6127579764	       -4.4260956877	        0.4225449117	        1.2690760564	        1.4311750060	        0.0048114787	        0.1709968923	       -0.0432251756	       -6.5841691165	        0.8908566404	        0.6083095210	        1.3279616495	       -0.0195946442	        0.0673214115	       -0.0593130882	
        3.3100000000	      -52.7563221514	       56.5459404152	       51.2812639565	       62.5706018916	      214.1126881704	      -74.7367265598	       82.8330798284	       10.5938743432	       -2.0566983410	       23.0597330021	        4.6460315138	       -0.3693001943	        0.2284647053	      -58.2117745580	      -53.4738026438	      -16.3488355670	       12.1459871617	        9.0791988617	       -4.4626234075	        0.3707543165	       28.9183861803	       31.4238323082	       11.5610183945	       -3.2177837351	        0.4182303550	        1.2818084839	        2.1708116602	       -0.0059268278	        0.1962109881	       -0.1088517271	       -6.1065654473	        1.2357239739	        0.5196493518	        1.9882059166	       -0.0374702666	        0.0638989972	       -0.1261117455	
